<?xml version="1.0" encoding="UTF-8" standalone="no"?>
<svg xmlns="http://www.w3.org/2000/svg" width="1024" height="1024" viewBox="-72 -72 144 144">
  <path fill="#ff0000" d="m 58.1995,-29.2 c -1.4,-5.2 -5.5,-9.3 -10.7,-10.7 -9.5,-2.6 -47.5,-2.6 -47.5,-2.6 0,0 -38,0 -47.5,2.5 -5.1,1.4 -9.3,5.6 -10.7,10.8 -2.5,9.5 -2.5,29.2 -2.5,29.2 0,0 0,19.8 2.5,29.2 1.4,5.2 5.5,9.3 10.7,10.7 9.6,2.6 47.5,2.6 47.5,2.6 0,0 38,0 47.5,-2.5 5.2,-1.4 9.3,-5.5 10.7,-10.7 2.5,-9.5 2.5,-29.2 2.5,-29.2 0,0 0.1,-19.8 -2.5,-29.3 z" />
  <polygon fill="#ffffff" points="-12.1005,-18.2 -12.1005,18.2 19.4995,0" />
</svg>