<svg xmlns="http://www.w3.org/2000/svg" xmlns:xlink="http://www.w3.org/1999/xlink" width="1024" height="1024" viewBox="0 0 144 144">
	<defs>
		<linearGradient id="yellow2">
			<stop offset="0" style="stop-color:#ffd43b;stop-opacity:1" />
			<stop offset="1" style="stop-color:#ffe873;stop-opacity:1" />
		</linearGradient>
		<linearGradient id="blue2">
			<stop offset="0" style="stop-color:#5a9fd4;stop-opacity:1" />
			<stop offset="1" style="stop-color:#306998;stop-opacity:1" />
		</linearGradient>
		<linearGradient gradientTransform="matrix(0.562541,0,0,0.567972,-14.99112,-11.703632)" gradientUnits="userSpaceOnUse" xlink:href="#yellow2" id="yellow" y2="137.27299" x2="112.03144" y1="192.35176" x1="150.96111" />
		<linearGradient gradientTransform="matrix(0.562541,0,0,0.567972,-14.99112,-11.703632)" gradientUnits="userSpaceOnUse" xlink:href="#blue2" id="blue" y2="114.39767" x2="135.66525" y1="20.603781" x1="26.648937" />
	</defs>
	<g transform="translate(16.4195,15.8055)">
		<path d="M 54.918785,-3.4216586e-4 C 50.335132,0.02095583 45.957846,0.41187553 42.106285,1.0934078 30.760069,3.0979116 28.700036,7.2935099 28.700035,15.030908 v 10.21875 h 26.8125 v 3.40625 h -26.8125 -10.0625 c -7.792459,0 -14.6157588,4.683717 -16.7499998,13.59375 -2.46181998,10.212966 -2.57101508,16.586023 0,27.25 1.9059283,7.937852 6.4575432,13.593748 14.2499998,13.59375 h 9.21875 v -12.25 c 0,-8.849902 7.657144,-16.656248 16.75,-16.65625 h 26.78125 c 7.454951,0 13.406253,-6.138164 13.40625,-13.625 v -25.53125 c 0,-7.2663391 -6.12998,-12.7247776 -13.40625,-13.9375002 -4.605987,-0.76672527 -9.385097,-1.11504827 -13.96875,-1.09374996586 z m -14.5,8.21875006586 c 2.769547,0 5.03125,2.2986461 5.03125,5.1250001 -2e-6,2.816336 -2.261703,5.09375 -5.03125,5.09375 -2.779476,-1e-6 -5.03125,-2.277415 -5.03125,-5.09375 -10e-7,-2.826353 2.251774,-5.1250001 5.03125,-5.1250001 z" fill="url(#blue)" />
		<path d="m 85.637535,28.655908 v 11.90625 c 0,9.230755 -7.825895,16.999999 -16.75,17 h -26.78125 c -7.335833,0 -13.406249,6.278483 -13.40625,13.625 v 25.531247 c 0,7.266335 6.318588,11.540315 13.40625,13.624995 8.487331,2.49561 16.626237,2.94663 26.78125,0 6.750155,-1.95439 13.406253,-5.88761 13.40625,-13.624995 V 86.499658 h -26.78125 v -3.40625 h 26.78125 13.406254 c 7.792461,0 10.696251,-5.435408 13.406241,-13.59375 2.79933,-8.398886 2.68022,-16.475776 0,-27.25 -1.92578,-7.757441 -5.60387,-13.59375 -13.406241,-13.59375 z m -15.0625,64.65625 c 2.779478,3e-6 5.03125,2.277417 5.03125,5.093747 -2e-6,2.826345 -2.251775,5.124995 -5.03125,5.124995 -2.76955,0 -5.03125,-2.29865 -5.03125,-5.124995 2e-6,-2.81633 2.261697,-5.093747 5.03125,-5.093747 z" fill="url(#yellow)" />
	</g>
</svg>
