<?xml version="1.0" encoding="UTF-8" standalone="no"?>
<svg xmlns="http://www.w3.org/2000/svg" width="1024" height="1024" viewBox="0 0 420 420">
  <g transform="translate(73.1845,24.4935)">
    <path fill="#5382a1" d="m 88.125761,286.9247 c 0,0 -14.178,8.245 10.09,11.035 29.399999,3.354 44.425999,2.873 76.824999,-3.259 0,0 8.518,5.341 20.414,9.967 -72.63,31.128 -164.375999,-1.803 -107.328999,-17.743" />
    <path fill="#5382a1" d="m 79.250761,246.3047 c 0,0 -15.902,11.771 8.384,14.283 31.405999,3.24 56.207999,3.505 99.124999,-4.759 0,0 5.936,6.018 15.27,9.309 -87.814,25.678 -185.622999,2.025 -122.778999,-18.833" />
    <path fill="#f8981d" d="m 154.06976,177.3997 c 17.896,20.604 -4.702,39.145 -4.702,39.145 0,0 45.441,-23.458 24.572,-52.833 -19.491,-27.394 -34.438,-41.005 46.479,-87.934 0,0 -127.012999,31.722 -66.349,101.622" />
    <path fill="#5382a1" d="m 250.12876,316.9697 c 0,0 10.492,8.645 -11.555,15.333 -41.923,12.7 -174.487999,16.535 -211.313999,0.506 -13.238,-5.759 11.587,-13.751 19.396,-15.428 8.144,-1.766 12.798,-1.437 12.798,-1.437 -14.722,-10.371 -95.157,20.364 -40.857,29.166 148.083999,24.015 269.942999,-10.814 231.531999,-28.14" />
    <path fill="#5382a1" d="m 94.943761,204.2177 c 0,0 -67.431,16.016 -23.879,21.832 18.389,2.462 55.046999,1.905 89.192999,-0.956 27.906,-2.354 55.927,-7.359 55.927,-7.359 0,0 -9.84,4.214 -16.959,9.075 -68.475,18.009 -200.7559993,9.631 -162.673999,-8.79 32.206,-15.568 58.392,-13.802 58.392,-13.802" />
    <path fill="#5382a1" d="m 215.90676,271.8317 c 69.608,-36.171 37.424,-70.931 14.96,-66.248 -5.506,1.146 -7.961,2.139 -7.961,2.139 0,0 2.044,-3.202 5.948,-4.588 44.441,-15.624 78.619,46.081 -14.346,70.52 0,0.001 1.077,-0.962 1.399,-1.823" />
    <path fill="#f8981d" d="m 173.93976,-3.0018611e-4 c 0,0 38.55,38.56300018611 -36.563,97.86200018611 -60.232999,47.568 -13.735,74.69 -0.025,105.678 -35.159,-31.722 -60.960999,-59.647 -43.650999,-85.637 C 119.10776,79.7517 189.49376,61.2547 173.93976,-3.0018611e-4" />
    <path fill="#5382a1" d="m 101.78376,369.8467 c 66.815,4.277 169.417,-2.373 171.847,-33.988 0,0 -4.671,11.985 -55.219,21.503 -57.028,10.732 -127.363999,9.479 -169.080999,2.601 10e-4,-10e-4 8.54,7.068 52.452999,9.884" />
  </g>
</svg>
