<?xml version="1.0" encoding="UTF-8" standalone="no"?>
<svg xmlns="http://www.w3.org/2000/svg" width="1024" height="1024" viewBox="-3840 -3840 7680 7680">
	<path fill="#0c9d58" d="m 1935.382,956.85 c 0,91.2 -75.2,165.9 -167.1,165.9 h -3536.7 c -91.9,0 -167.1,-74.7 -167.1,-165.9 v -3469.8 c 0,-91.2 75.2,-165.9 167.1,-165.9 h 3536.8 c 91.9,0 167.1,74.7 167.1,165.9 v 3469.8 z" />
	<polygon fill="#004d40" opacity="0.2" points="1935.382,-1601.85 1935.382,-1786.85 609.882,-1957.45" />
	<path fill="#004d40" opacity="0.2" d="m 63.88197,-2497.95 -2007.29997,896.3 2218.49997,-807.5 v -2.2 c -39,-83.6 -134,-122.6 -211.2,-86.6 z" />
	<path fill="#ffffff" opacity="0.2" d="m 1768.382,-2678.85 h -3536.8 c -91.9,0 -167.1,74.7 -167.1,165.9 v 37.2 c 0,-91.2 75.2,-165.9 167.1,-165.9 h 3536.8 c 91.9,0 167.1,74.7 167.1,165.9 v -37.2 c -0.1,-91.2 -75.2,-165.9 -167.1,-165.9 z" />
	<path fill="#ea4335" d="m -1077.218,850.25 c -23.9,89.1 23.8,180 105.99997,202 l 3275.80003,881 c 82.2,22 169,-32.9 192.8,-122 l 771.7,-2880 c 23.9,-89.1 -23.8,-180 -106,-202 l -3275.80003,-881 c -82.2,-22 -169,32.9 -192.8,122 z" />
	<polygon fill="#3e2723" opacity="0.2" points="2530.982,1649.25 2530.982,-40.75 2703.282,1005.95" />
	<polygon fill="#3e2723" opacity="0.2" points="875.582,-1227.25 625.382,-1914.75 779.782,-1873.25" />
	<path fill="#ffffff" opacity="0.2" d="m 3163.182,-1270.75 -3275.80003,-881 c -82.2,-22 -169,32.9 -192.8,122 l -771.69997,2880 c -1.3,4.8 -1.6,9.7 -2.5,14.5 l 765.89997,-2858.2 c 23.9,-89.1 110.7,-144 192.8,-122 l 3275.80003,881 c 77.7,20.8 123.8,103.3 108.5,187.6 l 5.9,-21.9 c 23.8,-89.1 -23.9,-180 -106.1,-202 z" />
	<path fill="#ffc107" d="m 1502.682,495.55 c 31.5,86.7 -8.1,181.4 -88,210.5 l -3456.7,1258.1 c -80,29.1 -171.2,-18 -202.7,-104.7 l -1019.8,-2801.8 c -31.5,-86.7 8.1,-181.4 88,-210.5 l 3456.69997,-1258.1 c 80,-29.1 171.2,18 202.7,104.7 z" />
	<path fill="#ffffff" opacity="0.2" d="m -3251.418,-907.05 c -31.5,-86.7 8.1,-181.4 88,-210.5 l 3456.69997,-1258.2 c 79.1,-28.8 169,17.1 201.5,102 l -11.9,-32.6 c -31.6,-86.7 -122.8,-133.8 -202.7,-104.7 l -3456.69997,1258.2 c -80,29.1 -119.6,123.8 -88,210.5 l 1019.8,2801.8 c 0.3,0.9 0.9,1.7 1.3,2.7 z" />
	<path fill="#4285f4" d="m 2530.982,2513.35 c 0,92.1 -75.4,167.5 -167.5,167.5 h -4727 c -92.1,0 -167.5,-75.4 -167.5,-167.5 v -3573.1 c 0,-92.1 75.4,-167.5 167.5,-167.5 h 4727 c 92.1,0 167.5,75.4 167.5,167.5 z" />
	<path fill="#ffffff" d="M 1628.382,187.15 H 213.98197 v -372.2 H 1628.382 c 41.1,0 74.4,33.3 74.4,74.4 v 223.3 c 0,41.1 -33.3,74.5 -74.4,74.5 z" />
	<path fill="#ffffff" d="M 1628.382,1601.45 H 213.98197 v -372.2 H 1628.382 c 41.1,0 74.4,33.3 74.4,74.4 v 223.3 c 0,41.2 -33.3,74.5 -74.4,74.5 z" />
	<path fill="#ffffff" d="M 1851.682,894.25 H 213.98197 V 522.05 H 1851.682 c 41.1,0 74.4,33.3 74.4,74.4 v 223.3 c 0,41.2 -33.3,74.5 -74.4,74.5 z" />
	<path fill="#1a237e" opacity="0.2" d="m 2363.482,2643.65 h -4727 c -92.1,0 -167.5,-75.4 -167.5,-167.5 v 37.2 c 0,92.1 75.4,167.5 167.5,167.5 h 4727 c 92.1,0 167.5,-75.4 167.5,-167.5 v -37.2 c 0,92.1 -75.4,167.5 -167.5,167.5 z" />
	<path fill="#ffffff" opacity="0.2" d="m -2363.518,-1190.05 h 4727 c 92.1,0 167.5,75.4 167.5,167.5 v -37.2 c 0,-92.1 -75.4,-167.5 -167.5,-167.5 h -4727 c -92.1,0 -167.5,75.4 -167.5,167.5 v 37.2 c 0,-92.1 75.4,-167.5 167.5,-167.5 z" />
	<path fill="#ffffff" d="m -1051.518,559.35 v 335.7 h 481.69997 c -39.8,204.5 -219.6,352.8 -481.69997,352.8 -292.4,0 -529.5,-247.3 -529.5,-539.7 0,-292.4 237.1,-539.7 529.5,-539.7 131.69997,0 249.59997,45.3 342.69997,134 v 0.2 l 254.9,-254.9 c -154.8,-144.3 -356.7,-232.8 -597.69997,-232.8 -493.3,0 -893.3,399.9 -893.3,893.3 0,493.4 399.9,893.3 893.3,893.3 515.89997,0 855.29997,-362.7 855.29997,-873 0,-58.5 -5.4,-114.9 -14.1,-169.2 z" />
	<path fill="#1a237e" opacity="0.2" d="m -1042.218,895.05 v 37.2 h 472.69997 c 3.5,-12.2 6.5,-24.6 9,-37.2 z" />
	<path fill="#1a237e" opacity="0.2" d="m -1042.218,1601.45 c -487.1,0 -882.9,-389.9 -892.8,-874.7 -0.1,6.2 -0.5,12.4 -0.5,18.6 0,493.4 399.9,893.3 893.3,893.3 515.89997,0 855.29997,-362.7 855.29997,-873 0,-4.1 -0.5,-7.9 -0.5,-12 -11.1,497 -347.4,847.8 -854.79997,847.8 z" />
	<path fill="#1a237e" opacity="0.2" d="m -699.51803,302.45 c -93.1,-88.6 -211.1,-134 -342.69997,-134 -292.4,0 -529.5,247.3 -529.5,539.7 0,6.3 0.7,12.4 0.9,18.6 9.9,-284.2 242.4,-521.1 528.6,-521.1 131.69997,0 249.59997,45.3 342.69997,134 v 0.2 l 273.5,-273.5 c -6.4,-6 -13.5,-11.3 -20.1,-17.1 l -253.3,253.4 z" />
	<path fill="#1a237e" opacity="0.2" d="m 1702.782,149.85 v -37.2 c 0,41.1 -33.3,74.4 -74.4,74.4 H 213.98197 v 37.2 H 1628.382 c 41.1,0.1 74.4,-33.2 74.4,-74.4 z" />
	<path fill="#1a237e" opacity="0.2" d="M 1628.382,1601.45 H 213.98197 v 37.2 H 1628.382 c 41.1,0 74.4,-33.3 74.4,-74.4 v -37.2 c 0,41.1 -33.3,74.4 -74.4,74.4 z" />
	<path fill="#1a237e" opacity="0.2" d="M 1851.682,894.25 H 213.98197 v 37.2 H 1851.682 c 41.1,0 74.4,-33.3 74.4,-74.4 v -37.2 c 0,41.1 -33.3,74.4 -74.4,74.4 z" />
	<radialGradient id="effect" r="6370.563" cx="-1799.0142" cy="-2244.6136" gradientUnits="userSpaceOnUse">
		<stop offset="0" stop-color="#FFFFFF" stop-opacity="0.1" />
		<stop offset="0" stop-color="#FFFFFF" stop-opacity="0.0" />
	</radialGradient>
	<path fill="url(#effect)" d="m 3163.182,-1270.75 -1227.7,-330.2 v -912 c 0,-91.2 -75.2,-165.9 -167.1,-165.9 h -3536.8 c -91.9,0 -167.1,74.7 -167.1,165.9 v 908.4 l -1241,451.7 c -80,29.1 -119.6,123.8 -88,210.5 l 733.5,2015.4 v 1440.3 c 0,92.1 75.4,167.5 167.5,167.5 h 4727 c 92.1,0 167.5,-75.4 167.5,-167.5 v -826.9 l 738.3,-2755.2 c 23.8,-89.1 -23.9,-180 -106.1,-202 z" />
</svg>
