<?xml version="1.0" encoding="UTF-8" standalone="no"?>
<svg xmlns="http://www.w3.org/2000/svg" width="1024" height="1024" viewBox="-80 -80 160 160">
	<path fill="#1a73e8" d="m 14.05,-63.95 c -4.4,-1.4 -9.2,-2.2 -14.1,-2.2 -14.1,0 -26.8,6.4 -35.3,16.5 l 21.8,18.3 z" />
	<path fill="#ea4335" d="m -35.35,-49.65 c -6.7,8 -10.8,18.4 -10.8,29.6 0,8.7 1.7,15.7 4.6,22 l 28,-33.3 z" />
	<path fill="#4285f4" d="m 0.05,-37.65 c 9.8,0 17.7,7.9 17.7,17.7 0,4.3 -1.6,8.3 -4.2,11.4 0,0 13.9,-16.6 27.5,-32.7 -5.6,-10.8 -15.3,-19 -27,-22.7 l -27.6,32.6 c 3.3,-3.8 8.1,-6.3 13.6,-6.3" />
	<path fill="#fbbc04"  d="m 0.05,-2.35 c -9.8,0 -17.7,-7.9 -17.7,-17.7 0,-4.3 1.5,-8.3 4.1,-11.3 l -28,33.3 c 4.8,10.6 12.8,19.2 21,29.9 l 34.1,-40.5 c -3.3,3.9 -8.1,6.3 -13.5,6.3" />
	<path fill="#34a853" d="m 12.95,43.05 c 15.4,-24.1 33.3,-35 33.3,-63 0,-7.7 -1.9,-14.9 -5.2,-21.3 l -61.6,73.1 c 2.6,3.4 5.3,7.3 7.9,11.3 9.4,14.5 6.8,23.1 12.8,23.1 6,0 3.4,-8.7 12.8,-23.2" />
</svg>