<?xml version="1.0" encoding="UTF-8" standalone="no"?>
<svg xmlns="http://www.w3.org/2000/svg" width="1024" height="1024" viewBox="-600 -600 1200 1200">
  <path fill="#d9d9d9" d="m 432.65,499.15 c 36.5,0 66.4,-29.4 66.4,-65.4 v -667.1 c 0,-36 -29.9,-65.4 -66.4,-65.4 h -648.1 l 260.1,797.9 z" />
  <polygon fill="#4352b8" points="-15.85,310.65 215.35,310.65 45.85,499.15" />
  <path fill="#617d8b" d="m 436.05,-22.35 v -39 h -188 v -63 h -61 v 63 h -120 v 39 h 238.8 c -12.8,45 -41,87.5 -68.5,120.5 -48.8,-57.7 -49,-76.5 -49,-76.5 h -50.7 c 0,0 2.1,28.1 70.5,108.3 -22.2,22.7 -39.1,36.2 -39.1,36.2 l 15.6,48.7 c 0,0 23.5,-20.2 53,-51.5 29.5,32 67.6,70.5 116.9,116.4 l 32,-32 c -52.8,-47.9 -91.5,-85.9 -119.9,-116.4 38.1,-45.1 76.8,-101.8 85,-153.8 h 84.4 z" />
  <path fill="#4f8bf5" d="m -432.65,-499.15 c -36.5,0 -66.4,29.9 -66.4,66.5 v 677 c 0,36.5 29.9,66.4 66.4,66.4 h 648.1 l -260.1,-809.9 z" />
  <path fill="#ffffff" d="m -77.05,-121.85 h -17.3 -56.8 -67.8 v 58.8 h 81.7 c -7.6,37.4 -39.5,58.8 -81.7,58.8 -49.8,0 -90,-40.2 -90,-90 0,-49.8 40.2,-90 90,-90 21.5,0 40.8,7.6 56.1,20.1 l 44.3,-44.3 c -27,-23.5 -61.6,-38.1 -100.4,-38.1 -84.5,0 -152.3,67.8 -152.3,152.3 0,84.5 67.9,152.4 152.3,152.4 76.2,0 145.4,-55.4 145.4,-152.3 0,-9 -1.4,-18.7 -3.5,-27.7 z" />
  <path fill="#ffffff" opacity="0.2" d="m 35.25,-298.75 h 397.4 c 36.5,0 66.4,29.4 66.4,65.4 v 400.2 z" />
</svg>
